<?xml version="1.0" standalone="no"?>
<!DOCTYPE svg PUBLIC "-//W3C//DTD SVG 20010904//EN"
 "http://www.w3.org/TR/2001/REC-SVG-20010904/DTD/svg10.dtd">
<svg version="1.0" xmlns="http://www.w3.org/2000/svg"
 width="512.000000pt" height="512.000000pt" viewBox="0 0 512.000000 512.000000"
 preserveAspectRatio="xMidYMid meet">
<metadata>
Created by potrace 1.11, written by Peter Selinger 2001-2013
</metadata>
<g transform="translate(0.000000,512.000000) scale(0.100000,-0.100000)"
fill="#000000" stroke="none">
<path d="M2514 4903 l-51 -4 -6 -157 c-4 -86 -7 -205 -7 -264 l0 -108 -160 0
-160 0 0 -50 0 -50 55 0 55 0 0 -55 0 -55 55 0 55 0 0 -50 0 -50 50 0 50 0 0
-165 0 -165 -50 0 -50 0 0 55 0 55 -110 0 -110 0 0 55 0 55 -50 0 -50 0 0 -55
0 -55 -159 0 -159 0 -7 -105 -7 -105 -49 0 -49 0 0 -55 0 -55 50 0 50 0 0 -55
0 -55 -50 0 -50 0 0 -105 0 -105 -55 0 -55 0 0 55 0 55 -55 0 -55 0 0 50 0 50
-50 0 -50 0 0 215 0 215 -55 0 -55 0 0 -104 0 -103 -67 -6 c-38 -3 -132 -3
-210 0 l-143 6 0 49 0 48 -104 0 -105 0 -3 -47 c-2 -27 -1 -74 0 -105 l4 -58
49 0 49 0 0 -55 0 -55 104 0 105 0 3 -52 3 -53 52 -3 53 -3 0 -50 0 -49 -105
0 -105 0 0 -55 0 -55 133 0 c74 0 168 3 210 6 l77 7 0 48 0 49 55 0 55 0 0
-55 0 -55 105 0 105 0 0 -49 0 -49 -105 -7 -105 -7 0 -99 0 -99 -55 0 -55 0 0
50 0 50 -50 0 -50 0 0 -55 0 -55 50 0 50 0 0 -50 0 -50 -49 0 -48 0 -6 -83
c-4 -45 -4 -119 0 -165 l6 -82 48 0 49 0 0 -50 0 -50 -50 0 -50 0 0 -50 0 -50
50 0 50 0 0 50 0 50 55 0 55 0 0 -105 0 -105 55 0 55 0 0 -55 0 -55 -270 0
-270 0 0 50 0 50 -50 0 -50 0 0 -50 0 -50 50 0 50 0 0 -55 0 -55 55 0 55 0 0
-50 0 -50 -55 0 -55 0 0 -55 0 -55 -105 0 -105 0 0 -55 0 -55 -49 0 -48 0 -7
-77 c-11 -141 -14 -133 49 -133 l55 0 0 50 0 50 78 0 c42 0 114 3 160 7 l82 6
0 48 0 49 49 0 50 0 3 -52 3 -53 51 -3 52 -3 7 -99 7 -100 49 0 49 0 0 259 0
259 105 7 105 7 0 49 0 49 55 0 55 0 0 -105 0 -105 50 0 50 0 0 -50 0 -50 -50
0 -50 0 0 -54 0 -55 53 -3 52 -3 3 -101 3 -101 76 -7 c42 -3 114 -6 160 -6
l83 0 0 -50 0 -50 49 0 49 0 7 105 7 105 49 0 49 0 0 -50 0 -50 50 0 50 0 0
50 0 50 55 0 55 0 0 -160 0 -160 -49 0 -50 0 -3 -53 -3 -52 -52 -3 -53 -3 0
-49 0 -49 -52 -3 -53 -3 -3 -53 -3 -52 110 0 111 0 0 50 0 50 50 0 50 0 0
-182 c0 -101 3 -220 7 -265 l6 -83 48 0 49 0 0 -50 0 -50 49 0 48 0 7 77 c3
42 6 114 6 160 l0 83 50 0 50 0 0 50 0 50 -50 0 -50 0 0 55 0 55 160 0 160 0
0 55 0 55 -55 0 -55 0 0 105 0 105 -105 0 -105 0 0 160 0 160 55 0 55 0 0 -50
0 -50 50 0 50 0 0 50 0 50 49 0 49 0 7 -105 7 -105 49 0 49 0 0 50 0 50 160 0
159 0 3 108 3 107 103 3 102 3 0 49 0 50 -50 0 -50 0 0 160 0 160 55 0 55 0 0
-49 0 -49 105 -7 105 -7 0 -159 0 -159 50 0 50 0 0 -50 0 -50 54 0 54 0 7 105
7 105 98 0 99 0 3 -52 3 -53 108 -3 107 -3 0 -49 0 -50 105 0 105 0 0 50 0 50
-50 0 -50 0 0 55 0 55 -55 0 -55 0 0 55 0 55 -105 0 -105 0 0 28 c0 16 -3 63
-6 105 l-7 77 57 0 56 0 0 105 0 105 -50 0 -50 0 0 -50 0 -50 -271 0 -270 0 3
53 3 52 53 3 52 3 0 105 0 104 55 0 55 0 0 -50 0 -50 50 0 50 0 0 78 c0 44 3
113 6 155 l7 77 48 0 49 0 0 55 0 55 -49 0 -48 0 -7 77 c-3 42 -6 114 -6 160
l0 83 -50 0 -50 0 0 -50 0 -50 -55 0 -55 0 0 105 0 105 -55 0 -55 0 0 50 0 50
55 0 55 0 0 55 0 55 105 0 105 0 0 -55 0 -55 110 0 110 0 0 -50 0 -50 50 0 50
0 0 105 0 105 -56 0 -57 0 7 77 c3 42 6 89 6 105 l0 28 105 0 105 0 0 55 0 55
55 0 55 0 0 55 0 55 50 0 50 0 0 50 0 50 -105 0 -105 0 0 -50 0 -50 -83 0
c-46 0 -118 -3 -160 -6 l-77 -7 0 -48 0 -49 -49 0 -48 0 -7 77 c-3 42 -6 114
-6 160 l0 83 -49 0 -49 0 -7 -105 -7 -105 -49 0 -49 0 0 -159 0 -158 -84 -6
c-46 -4 -118 -4 -160 -1 l-76 7 0 53 0 54 -50 0 -50 0 0 50 0 50 50 0 50 0 0
55 0 55 -49 0 -49 0 -7 105 -7 105 -159 0 -159 0 0 55 0 55 -49 0 -49 0 -7
-105 -7 -105 -49 0 -49 0 0 50 0 50 -55 0 -55 0 0 -55 0 -55 -50 0 -50 0 0
159 0 160 53 3 52 3 3 53 3 52 50 0 49 0 0 55 0 55 55 0 55 0 0 50 0 50 -83 0
c-46 0 -118 3 -160 6 l-77 7 -2 261 -3 261 -50 1 c-27 0 -73 -1 -101 -3z
m-374 -1432 l0 -49 106 -7 107 -8 -7 -76 c-3 -42 -3 -111 0 -154 l7 -77 48 0
49 0 0 -110 0 -110 -161 0 -161 0 4 108 3 107 -57 3 -58 3 0 49 0 50 -50 0
-50 0 0 160 0 160 110 0 110 0 0 -49z m1060 -160 l0 -209 -105 -7 -105 -7 0
-54 0 -54 50 0 50 0 0 -50 0 -50 -160 0 -160 0 0 105 0 105 -50 0 -50 0 0 55
0 55 50 0 50 0 0 -50 0 -50 55 0 55 0 0 105 0 105 -50 0 -50 0 0 49 0 49 100
7 100 7 0 49 0 49 110 0 110 0 0 -209z m-1490 -590 l0 -50 53 -3 52 -3 3 -52
3 -53 50 0 49 0 0 55 c0 63 -8 60 133 49 l77 -7 0 -153 0 -154 -28 0 c-16 0
-63 -3 -105 -6 l-77 -7 0 57 0 56 -49 0 -50 0 -3 -52 -3 -53 -52 -3 -53 -3 0
-50 0 -49 -55 0 -55 0 0 55 0 55 -55 0 -55 0 0 50 0 50 -50 0 -50 0 0 55 0 55
50 0 50 0 0 50 0 50 55 0 55 0 0 55 0 55 55 0 55 0 0 -49z m1810 0 l0 -49 104
-7 103 -7 6 -73 c4 -40 4 -109 0 -152 l-6 -80 -136 -5 c-75 -3 -169 -3 -208
-1 l-73 6 0 48 0 49 -55 0 -55 0 0 -56 0 -55 -52 3 -53 3 -3 53 -3 52 -50 0
-49 0 0 55 0 55 50 0 50 0 0 55 0 55 55 0 55 0 0 -55 0 -55 49 0 50 0 3 53 3
52 58 3 57 3 0 49 0 50 50 0 50 0 0 -49z m-2240 -211 l0 -50 -50 0 -50 0 0 50
0 50 50 0 50 0 0 -50z m1170 -485 l0 -105 -49 0 -48 0 -7 -77 c-3 -42 -6 -114
-6 -160 l0 -83 -99 0 -100 0 -3 -52 -3 -53 -107 -3 -108 -3 0 216 0 215 111 0
111 0 -7 105 -7 105 161 0 161 0 0 -105z m640 55 l0 -50 -50 0 -50 0 0 -55 0
-55 105 0 105 0 0 -215 0 -215 -105 0 -105 0 0 55 0 55 -55 0 -55 0 0 160 0
160 -105 0 -105 0 0 50 0 50 50 0 50 0 0 55 0 55 160 0 160 0 0 -50z"/>
</g>
</svg>
